<mxfile host="app.diagrams.net" modified="2023-04-14T01:02:23.477Z" agent="Mozilla/5.0 (Windows NT 10.0; Win64; x64) AppleWebKit/537.36 (KHTML, like Gecko) Chrome/112.0.0.0 Safari/537.36" etag="KRCVAL8X7iz7uj6Fcwjh" version="21.1.7" type="github">
  <diagram name="Page-1" id="JsBpz2cFHgaMmNJ-yMkI">
    <mxGraphModel dx="833" dy="786" grid="1" gridSize="10" guides="1" tooltips="1" connect="1" arrows="1" fold="1" page="1" pageScale="1" pageWidth="850" pageHeight="1100" math="0" shadow="0">
      <root>
        <mxCell id="0" />
        <mxCell id="1" parent="0" />
        <mxCell id="WnR44OZVttVRIEhPfZe7-2" value="customers" style="swimlane;fontStyle=0;childLayout=stackLayout;horizontal=1;startSize=30;horizontalStack=0;resizeParent=1;resizeParentMax=0;resizeLast=0;collapsible=1;marginBottom=0;whiteSpace=wrap;html=1;" vertex="1" parent="1">
          <mxGeometry x="410" y="420" width="175" height="220" as="geometry" />
        </mxCell>
        <mxCell id="WnR44OZVttVRIEhPfZe7-3" value="_id&lt;br&gt;username: string&lt;br&gt;name: string&lt;br&gt;address: string&lt;br&gt;&lt;br&gt;" style="text;strokeColor=none;fillColor=none;align=left;verticalAlign=middle;spacingLeft=4;spacingRight=4;overflow=hidden;points=[[0,0.5],[1,0.5]];portConstraint=eastwest;rotatable=0;whiteSpace=wrap;html=1;" vertex="1" parent="WnR44OZVttVRIEhPfZe7-2">
          <mxGeometry y="30" width="175" height="60" as="geometry" />
        </mxCell>
        <mxCell id="WnR44OZVttVRIEhPfZe7-4" value="birthdate: date&lt;br&gt;email: string&lt;br&gt;active: boolean&lt;br&gt;accounts: Integer array (account_id)" style="text;strokeColor=none;fillColor=none;align=left;verticalAlign=middle;spacingLeft=4;spacingRight=4;overflow=hidden;points=[[0,0.5],[1,0.5]];portConstraint=eastwest;rotatable=0;whiteSpace=wrap;html=1;" vertex="1" parent="WnR44OZVttVRIEhPfZe7-2">
          <mxGeometry y="90" width="175" height="80" as="geometry" />
        </mxCell>
        <mxCell id="WnR44OZVttVRIEhPfZe7-5" value="tier_and_details: String&lt;br&gt;tier: string&lt;br&gt;benefits: string array" style="text;strokeColor=none;fillColor=none;align=left;verticalAlign=middle;spacingLeft=4;spacingRight=4;overflow=hidden;points=[[0,0.5],[1,0.5]];portConstraint=eastwest;rotatable=0;whiteSpace=wrap;html=1;" vertex="1" parent="WnR44OZVttVRIEhPfZe7-2">
          <mxGeometry y="170" width="175" height="50" as="geometry" />
        </mxCell>
        <mxCell id="WnR44OZVttVRIEhPfZe7-6" value="accounts" style="swimlane;fontStyle=0;childLayout=stackLayout;horizontal=1;startSize=30;horizontalStack=0;resizeParent=1;resizeParentMax=0;resizeLast=0;collapsible=1;marginBottom=0;whiteSpace=wrap;html=1;" vertex="1" parent="1">
          <mxGeometry x="130" y="290" width="140" height="140" as="geometry" />
        </mxCell>
        <mxCell id="WnR44OZVttVRIEhPfZe7-7" value="_id" style="text;strokeColor=none;fillColor=none;align=left;verticalAlign=middle;spacingLeft=4;spacingRight=4;overflow=hidden;points=[[0,0.5],[1,0.5]];portConstraint=eastwest;rotatable=0;whiteSpace=wrap;html=1;" vertex="1" parent="WnR44OZVttVRIEhPfZe7-6">
          <mxGeometry y="30" width="140" height="30" as="geometry" />
        </mxCell>
        <mxCell id="WnR44OZVttVRIEhPfZe7-8" value="account_id" style="text;strokeColor=none;fillColor=none;align=left;verticalAlign=middle;spacingLeft=4;spacingRight=4;overflow=hidden;points=[[0,0.5],[1,0.5]];portConstraint=eastwest;rotatable=0;whiteSpace=wrap;html=1;" vertex="1" parent="WnR44OZVttVRIEhPfZe7-6">
          <mxGeometry y="60" width="140" height="30" as="geometry" />
        </mxCell>
        <mxCell id="WnR44OZVttVRIEhPfZe7-9" value="limit: int&lt;br&gt;&lt;br&gt;Products: String array" style="text;strokeColor=none;fillColor=none;align=left;verticalAlign=middle;spacingLeft=4;spacingRight=4;overflow=hidden;points=[[0,0.5],[1,0.5]];portConstraint=eastwest;rotatable=0;whiteSpace=wrap;html=1;" vertex="1" parent="WnR44OZVttVRIEhPfZe7-6">
          <mxGeometry y="90" width="140" height="50" as="geometry" />
        </mxCell>
        <mxCell id="WnR44OZVttVRIEhPfZe7-10" value="transactions" style="swimlane;fontStyle=0;childLayout=stackLayout;horizontal=1;startSize=30;horizontalStack=0;resizeParent=1;resizeParentMax=0;resizeLast=0;collapsible=1;marginBottom=0;whiteSpace=wrap;html=1;" vertex="1" parent="1">
          <mxGeometry x="130" y="520" width="170" height="240" as="geometry" />
        </mxCell>
        <mxCell id="WnR44OZVttVRIEhPfZe7-11" value="_id&lt;br&gt;account_id: accountID&lt;br&gt;transaction_count: int&lt;br&gt;bucket_start_date: date&lt;br&gt;bucket_end_date:date&lt;span style=&quot;white-space: pre;&quot;&gt;	&lt;/span&gt;" style="text;strokeColor=none;fillColor=none;align=left;verticalAlign=middle;spacingLeft=4;spacingRight=4;overflow=hidden;points=[[0,0.5],[1,0.5]];portConstraint=eastwest;rotatable=0;whiteSpace=wrap;html=1;" vertex="1" parent="WnR44OZVttVRIEhPfZe7-10">
          <mxGeometry y="30" width="170" height="80" as="geometry" />
        </mxCell>
        <mxCell id="WnR44OZVttVRIEhPfZe7-12" value="transactions:transaction array" style="text;strokeColor=none;fillColor=none;align=left;verticalAlign=middle;spacingLeft=4;spacingRight=4;overflow=hidden;points=[[0,0.5],[1,0.5]];portConstraint=eastwest;rotatable=0;whiteSpace=wrap;html=1;" vertex="1" parent="WnR44OZVttVRIEhPfZe7-10">
          <mxGeometry y="110" width="170" height="30" as="geometry" />
        </mxCell>
        <mxCell id="WnR44OZVttVRIEhPfZe7-13" value="-date: date&lt;br&gt;-amount: int&lt;br&gt;-transaction_code: string&lt;br&gt;- symbol: string&lt;br&gt;-price: String&lt;br&gt;-total: string" style="text;strokeColor=none;fillColor=none;align=left;verticalAlign=middle;spacingLeft=4;spacingRight=4;overflow=hidden;points=[[0,0.5],[1,0.5]];portConstraint=eastwest;rotatable=0;whiteSpace=wrap;html=1;" vertex="1" parent="WnR44OZVttVRIEhPfZe7-10">
          <mxGeometry y="140" width="170" height="100" as="geometry" />
        </mxCell>
        <mxCell id="WnR44OZVttVRIEhPfZe7-16" value="can be" style="edgeStyle=orthogonalEdgeStyle;rounded=0;orthogonalLoop=1;jettySize=auto;html=1;entryX=0.549;entryY=0.005;entryDx=0;entryDy=0;entryPerimeter=0;" edge="1" parent="1" source="WnR44OZVttVRIEhPfZe7-8" target="WnR44OZVttVRIEhPfZe7-2">
          <mxGeometry relative="1" as="geometry" />
        </mxCell>
        <mxCell id="WnR44OZVttVRIEhPfZe7-17" value="create" style="edgeStyle=orthogonalEdgeStyle;rounded=0;orthogonalLoop=1;jettySize=auto;html=1;entryX=1;entryY=0.5;entryDx=0;entryDy=0;" edge="1" parent="1" source="WnR44OZVttVRIEhPfZe7-5" target="WnR44OZVttVRIEhPfZe7-12">
          <mxGeometry relative="1" as="geometry" />
        </mxCell>
      </root>
    </mxGraphModel>
  </diagram>
</mxfile>
